<svg width="566" height="72" viewBox="0 0 566 72" fill="none" xmlns="http://www.w3.org/2000/svg">
<mask id="path-1-outside-1_1_5" maskUnits="userSpaceOnUse" x="0" y="0" width="566" height="72" fill="black">
<rect fill="white" width="566" height="72"/>
<path d="M16.6146 70C8.64663 70 4.23063 67.792 2.21463 62.704C0.198625 57.52 1.83063 52.624 6.82263 48.688L65.2866 2.8H78.8226L12.6786 55.12C10.5666 56.848 9.79863 58.192 9.79863 59.44C9.79863 61.072 11.2386 61.552 14.3106 61.552H80.7426V70H16.6146ZM44.3586 11.248H3.65463V2.8H44.3586V11.248ZM192.81 61.552V70H137.418C123.498 70 114.186 61.744 114.186 50.32C114.186 38.992 123.498 32.08 137.418 32.08H190.794V40.528H137.418C128.682 40.528 122.826 44.08 122.826 50.32C122.826 56.656 128.682 61.552 137.418 61.552H192.81ZM115.146 11.248H192.81V2.8H115.146V11.248ZM226.248 70V13.264C226.248 6.44799 231.24 1.84 238.824 1.84C244.104 1.84 246.504 2.992 253.032 11.536L297.288 70H286.632L244.008 13.936C241.32 10.48 240.36 9.808 238.728 9.808C236.424 9.808 234.888 11.44 234.888 13.936V70H226.248ZM299.208 38.416H290.568V2.8H299.208V38.416ZM331.677 70V2.8H340.317V70H331.677ZM405.459 2.8V11.44H372.819V2.8H405.459ZM452.499 2.8V11.44H434.643C423.699 11.44 416.979 17.68 416.979 27.76V70H408.339V27.76C408.339 12.304 418.515 2.8 434.931 2.8H452.499ZM555.871 2.8H564.511L564.415 16.624C564.319 33.904 556.735 40.336 538.495 40.432L513.247 40.624C498.463 40.72 493.375 46 492.895 61.36L492.607 70.096H483.967L484.159 61.36C484.639 38.608 491.167 32.272 513.247 32.176L538.495 32.08C551.743 31.984 555.487 27.952 555.679 16.624L555.871 2.8ZM492.607 26.32H483.967V2.8H492.607V26.32ZM564.703 70H556.063V46.48H564.703V70Z"/>
</mask>
<path d="M16.6146 70C8.64663 70 4.23063 67.792 2.21463 62.704C0.198625 57.52 1.83063 52.624 6.82263 48.688L65.2866 2.8H78.8226L12.6786 55.12C10.5666 56.848 9.79863 58.192 9.79863 59.44C9.79863 61.072 11.2386 61.552 14.3106 61.552H80.7426V70H16.6146ZM44.3586 11.248H3.65463V2.8H44.3586V11.248ZM192.81 61.552V70H137.418C123.498 70 114.186 61.744 114.186 50.32C114.186 38.992 123.498 32.08 137.418 32.08H190.794V40.528H137.418C128.682 40.528 122.826 44.08 122.826 50.32C122.826 56.656 128.682 61.552 137.418 61.552H192.81ZM115.146 11.248H192.81V2.8H115.146V11.248ZM226.248 70V13.264C226.248 6.44799 231.24 1.84 238.824 1.84C244.104 1.84 246.504 2.992 253.032 11.536L297.288 70H286.632L244.008 13.936C241.32 10.48 240.36 9.808 238.728 9.808C236.424 9.808 234.888 11.44 234.888 13.936V70H226.248ZM299.208 38.416H290.568V2.8H299.208V38.416ZM331.677 70V2.8H340.317V70H331.677ZM405.459 2.8V11.44H372.819V2.8H405.459ZM452.499 2.8V11.44H434.643C423.699 11.44 416.979 17.68 416.979 27.76V70H408.339V27.76C408.339 12.304 418.515 2.8 434.931 2.8H452.499ZM555.871 2.8H564.511L564.415 16.624C564.319 33.904 556.735 40.336 538.495 40.432L513.247 40.624C498.463 40.72 493.375 46 492.895 61.36L492.607 70.096H483.967L484.159 61.36C484.639 38.608 491.167 32.272 513.247 32.176L538.495 32.08C551.743 31.984 555.487 27.952 555.679 16.624L555.871 2.8ZM492.607 26.32H483.967V2.8H492.607V26.32ZM564.703 70H556.063V46.48H564.703V70Z" fill="white"/>
<path d="M2.21463 62.704L1.2826 63.0665L1.28494 63.0724L2.21463 62.704ZM6.82263 48.688L6.2052 47.9014L6.20347 47.9027L6.82263 48.688ZM65.2866 2.8V1.8H64.9411L64.6692 2.01336L65.2866 2.8ZM78.8226 2.8L79.443 3.5843L81.6988 1.8H78.8226V2.8ZM12.6786 55.12L12.0582 54.3357L12.0518 54.3408L12.0454 54.346L12.6786 55.12ZM80.7426 61.552H81.7426V60.552H80.7426V61.552ZM80.7426 70V71H81.7426V70H80.7426ZM44.3586 11.248V12.248H45.3586V11.248H44.3586ZM3.65463 11.248H2.65463V12.248H3.65463V11.248ZM3.65463 2.8V1.8H2.65463V2.8H3.65463ZM44.3586 2.8H45.3586V1.8H44.3586V2.8ZM16.6146 70V69C12.7067 69 9.78816 68.4557 7.63348 67.3674C5.51525 66.2975 4.06876 64.6688 3.14431 62.3356L2.21463 62.704L1.28494 63.0724C2.37649 65.8272 4.146 67.8465 6.73177 69.1526C9.28109 70.4403 12.5545 71 16.6146 71V70ZM2.21463 62.704L3.14663 62.3416C2.21444 59.9445 2.13991 57.6639 2.84027 55.5413C3.54458 53.4067 5.05991 51.3513 7.44178 49.4733L6.82263 48.688L6.20347 47.9027C3.59334 49.9607 1.79667 52.3213 0.940982 54.9147C0.0813352 57.5201 0.198815 60.2795 1.28262 63.0664L2.21463 62.704ZM6.82263 48.688L7.44005 49.4746L65.9041 3.58663L65.2866 2.8L64.6692 2.01336L6.2052 47.9014L6.82263 48.688ZM65.2866 2.8V3.8H78.8226V2.8V1.8H65.2866V2.8ZM78.8226 2.8L78.2022 2.0157L12.0582 54.3357L12.6786 55.12L13.299 55.9043L79.443 3.5843L78.8226 2.8ZM12.6786 55.12L12.0454 54.346C9.86913 56.1266 8.79863 57.7274 8.79863 59.44H9.79863H10.7986C10.7986 58.6566 11.2641 57.5694 13.3119 55.894L12.6786 55.12ZM9.79863 59.44H8.79863C8.79863 59.9983 8.92354 60.5391 9.23958 61.0132C9.55436 61.4854 10.0024 61.8067 10.5034 62.0248C11.4552 62.4393 12.7701 62.552 14.3106 62.552V61.552V60.552C12.7791 60.552 11.8381 60.4247 11.3019 60.1912C11.0589 60.0853 10.9549 59.9806 10.9037 59.9038C10.8537 59.8289 10.7986 59.6977 10.7986 59.44H9.79863ZM14.3106 61.552V62.552H80.7426V61.552V60.552H14.3106V61.552ZM80.7426 61.552H79.7426V70H80.7426H81.7426V61.552H80.7426ZM80.7426 70V69H16.6146V70V71H80.7426V70ZM44.3586 11.248V10.248H3.65463V11.248V12.248H44.3586V11.248ZM3.65463 11.248H4.65463V2.8H3.65463H2.65463V11.248H3.65463ZM3.65463 2.8V3.8H44.3586V2.8V1.8H3.65463V2.8ZM44.3586 2.8H43.3586V11.248H44.3586H45.3586V2.8H44.3586ZM192.81 61.552H193.81V60.552H192.81V61.552ZM192.81 70V71H193.81V70H192.81ZM190.794 32.08H191.794V31.08H190.794V32.08ZM190.794 40.528V41.528H191.794V40.528H190.794ZM115.146 11.248H114.146V12.248H115.146V11.248ZM192.81 11.248V12.248H193.81V11.248H192.81ZM192.81 2.8H193.81V1.8H192.81V2.8ZM115.146 2.8V1.8H114.146V2.8H115.146ZM192.81 61.552H191.81V70H192.81H193.81V61.552H192.81ZM192.81 70V69H137.418V70V71H192.81V70ZM137.418 70V69C130.652 69 125.089 66.9949 121.233 63.6852C117.388 60.3843 115.186 55.742 115.186 50.32H114.186H113.186C113.186 56.322 115.64 61.5197 119.93 65.2028C124.211 68.8771 130.263 71 137.418 71V70ZM114.186 50.32H115.186C115.186 44.9604 117.374 40.6947 121.193 37.7432C125.039 34.7711 130.611 33.08 137.418 33.08V32.08V31.08C130.304 31.08 124.26 32.8449 119.97 36.1608C115.653 39.4973 113.186 44.3516 113.186 50.32H114.186ZM137.418 32.08V33.08H190.794V32.08V31.08H137.418V32.08ZM190.794 32.08H189.794V40.528H190.794H191.794V32.08H190.794ZM190.794 40.528V39.528H137.418V40.528V41.528H190.794V40.528ZM137.418 40.528V39.528C132.933 39.528 129.072 40.4367 126.299 42.2465C123.485 44.0832 121.826 46.8339 121.826 50.32H122.826H123.826C123.826 47.5661 125.095 45.4208 127.392 43.9215C129.731 42.3953 133.166 41.528 137.418 41.528V40.528ZM122.826 50.32H121.826C121.826 57.4164 128.364 62.552 137.418 62.552V61.552V60.552C129 60.552 123.826 55.8956 123.826 50.32H122.826ZM137.418 61.552V62.552H192.81V61.552V60.552H137.418V61.552ZM115.146 11.248V12.248H192.81V11.248V10.248H115.146V11.248ZM192.81 11.248H193.81V2.8H192.81H191.81V11.248H192.81ZM192.81 2.8V1.8H115.146V2.8V3.8H192.81V2.8ZM115.146 2.8H114.146V11.248H115.146H116.146V2.8H115.146ZM226.248 70H225.248V71H226.248V70ZM253.032 11.536L253.829 10.9324L253.827 10.9289L253.032 11.536ZM297.288 70V71H299.299L298.085 69.3964L297.288 70ZM286.632 70L285.836 70.6052L286.136 71H286.632V70ZM244.008 13.936L244.804 13.3307L244.797 13.3221L244.008 13.936ZM234.888 70V71H235.888V70H234.888ZM299.208 38.416V39.416H300.208V38.416H299.208ZM290.568 38.416H289.568V39.416H290.568V38.416ZM290.568 2.8V1.8H289.568V2.8H290.568ZM299.208 2.8H300.208V1.8H299.208V2.8ZM226.248 70H227.248V13.264H226.248H225.248V70H226.248ZM226.248 13.264H227.248C227.248 10.1127 228.395 7.53338 230.366 5.73466C232.345 3.92867 235.233 2.84 238.824 2.84V1.84V0.839996C234.831 0.839996 231.431 2.05532 229.018 4.25734C226.597 6.46661 225.248 9.59924 225.248 13.264H226.248ZM238.824 1.84V2.84C241.374 2.84 243.069 3.11676 244.913 4.32122C246.831 5.57394 248.973 7.87074 252.238 12.1431L253.032 11.536L253.827 10.9289C250.563 6.65726 248.241 4.10605 246.007 2.64677C243.699 1.13923 241.554 0.839996 238.824 0.839996V1.84ZM253.032 11.536L252.235 12.1396L296.491 70.6036L297.288 70L298.085 69.3964L253.829 10.9324L253.032 11.536ZM297.288 70V69H286.632V70V71H297.288V70ZM286.632 70L287.428 69.3948L244.804 13.3308L244.008 13.936L243.212 14.5412L285.836 70.6052L286.632 70ZM244.008 13.936L244.797 13.3221C243.458 11.5993 242.476 10.4708 241.582 9.78337C240.611 9.03644 239.743 8.808 238.728 8.808V9.808V10.808C239.345 10.808 239.773 10.9156 240.362 11.3686C241.029 11.8812 241.871 12.8167 243.219 14.5499L244.008 13.936ZM238.728 9.808V8.808C237.33 8.808 236.094 9.30965 235.213 10.2537C234.338 11.1914 233.888 12.4831 233.888 13.936H234.888H235.888C235.888 12.8929 236.206 12.1206 236.675 11.6183C237.138 11.1223 237.823 10.808 238.728 10.808V9.808ZM234.888 13.936H233.888V70H234.888H235.888V13.936H234.888ZM234.888 70V69H226.248V70V71H234.888V70ZM299.208 38.416V37.416H290.568V38.416V39.416H299.208V38.416ZM290.568 38.416H291.568V2.8H290.568H289.568V38.416H290.568ZM290.568 2.8V3.8H299.208V2.8V1.8H290.568V2.8ZM299.208 2.8H298.208V38.416H299.208H300.208V2.8H299.208ZM331.677 70H330.677V71H331.677V70ZM331.677 2.8V1.8H330.677V2.8H331.677ZM340.317 2.8H341.317V1.8H340.317V2.8ZM340.317 70V71H341.317V70H340.317ZM331.677 70H332.677V2.8H331.677H330.677V70H331.677ZM331.677 2.8V3.8H340.317V2.8V1.8H331.677V2.8ZM340.317 2.8H339.317V70H340.317H341.317V2.8H340.317ZM340.317 70V69H331.677V70V71H340.317V70ZM405.459 2.8H406.459V1.8H405.459V2.8ZM405.459 11.44V12.44H406.459V11.44H405.459ZM372.819 11.44H371.819V12.44H372.819V11.44ZM372.819 2.8V1.8H371.819V2.8H372.819ZM452.499 2.8H453.499V1.8H452.499V2.8ZM452.499 11.44V12.44H453.499V11.44H452.499ZM416.979 70V71H417.979V70H416.979ZM408.339 70H407.339V71H408.339V70ZM405.459 2.8H404.459V11.44H405.459H406.459V2.8H405.459ZM405.459 11.44V10.44H372.819V11.44V12.44H405.459V11.44ZM372.819 11.44H373.819V2.8H372.819H371.819V11.44H372.819ZM372.819 2.8V3.8H405.459V2.8V1.8H372.819V2.8ZM452.499 2.8H451.499V11.44H452.499H453.499V2.8H452.499ZM452.499 11.44V10.44H434.643V11.44V12.44H452.499V11.44ZM434.643 11.44V10.44C428.985 10.44 424.304 12.0551 421.028 15.086C417.743 18.1253 415.979 22.489 415.979 27.76H416.979H417.979C417.979 22.951 419.576 19.1547 422.386 16.554C425.207 13.9449 429.357 12.44 434.643 12.44V11.44ZM416.979 27.76H415.979V70H416.979H417.979V27.76H416.979ZM416.979 70V69H408.339V70V71H416.979V70ZM408.339 70H409.339V27.76H408.339H407.339V70H408.339ZM408.339 27.76H409.339C409.339 20.2592 411.802 14.3013 416.163 10.2136C420.532 6.11867 426.913 3.8 434.931 3.8V2.8V1.8C426.533 1.8 419.619 4.23332 414.795 8.7544C409.964 13.2827 407.339 19.8048 407.339 27.76H408.339ZM434.931 2.8V3.8H452.499V2.8V1.8H434.931V2.8ZM555.871 2.8V1.8H554.885L554.871 2.78611L555.871 2.8ZM564.511 2.8L565.511 2.80694L565.518 1.8H564.511V2.8ZM564.415 16.624L563.415 16.6171L563.415 16.6184L564.415 16.624ZM538.495 40.432L538.49 39.432L538.487 39.432L538.495 40.432ZM513.247 40.624L513.253 41.624L513.254 41.624L513.247 40.624ZM492.895 61.36L493.894 61.3929L493.894 61.3912L492.895 61.36ZM492.607 70.096V71.096H493.574L493.606 70.1289L492.607 70.096ZM483.967 70.096L482.967 70.074L482.945 71.096H483.967V70.096ZM484.159 61.36L485.159 61.382L485.159 61.3811L484.159 61.36ZM513.247 32.176L513.243 31.176L513.243 31.176L513.247 32.176ZM538.495 32.08L538.499 33.08L538.502 33.08L538.495 32.08ZM555.679 16.624L556.679 16.6409L556.679 16.6379L555.679 16.624ZM492.607 26.32V27.32H493.607V26.32H492.607ZM483.967 26.32H482.967V27.32H483.967V26.32ZM483.967 2.8V1.8H482.967V2.8H483.967ZM492.607 2.8H493.607V1.8H492.607V2.8ZM564.703 70V71H565.703V70H564.703ZM556.063 70H555.063V71H556.063V70ZM556.063 46.48V45.48H555.063V46.48H556.063ZM564.703 46.48H565.703V45.48H564.703V46.48ZM555.871 2.8V3.8H564.511V2.8V1.8H555.871V2.8ZM564.511 2.8L563.511 2.79305L563.415 16.6171L564.415 16.624L565.415 16.6309L565.511 2.80694L564.511 2.8ZM564.415 16.624L563.415 16.6184C563.368 25.1392 561.473 30.7243 557.589 34.2297C553.679 37.7582 547.535 39.3844 538.49 39.432L538.495 40.432L538.5 41.432C547.695 41.3836 554.462 39.7458 558.929 35.7143C563.421 31.6597 565.366 25.3888 565.415 16.6296L564.415 16.624ZM538.495 40.432L538.487 39.432L513.239 39.624L513.247 40.624L513.254 41.624L538.502 41.432L538.495 40.432ZM513.247 40.624L513.24 39.624C505.775 39.6725 500.46 41.0221 496.992 44.5689C493.536 48.1027 492.137 53.5935 491.895 61.3288L492.895 61.36L493.894 61.3912C494.133 53.7665 495.517 48.9373 498.422 45.9671C501.314 43.0099 505.935 41.6715 513.253 41.624L513.247 40.624ZM492.895 61.36L491.895 61.3271L491.607 70.0631L492.607 70.096L493.606 70.1289L493.894 61.3929L492.895 61.36ZM492.607 70.096V69.096H483.967V70.096V71.096H492.607V70.096ZM483.967 70.096L484.967 70.118L485.159 61.382L484.159 61.36L483.159 61.338L482.967 70.074L483.967 70.096ZM484.159 61.36L485.159 61.3811C485.398 50.0275 487.157 43.1205 491.309 38.9801C495.456 34.8445 502.237 33.2239 513.251 33.176L513.247 32.176L513.243 31.176C502.177 31.2241 494.654 32.8195 489.897 37.5639C485.144 42.3035 483.4 49.9405 483.159 61.3389L484.159 61.36ZM513.247 32.176L513.251 33.176L538.499 33.08L538.495 32.08L538.491 31.08L513.243 31.176L513.247 32.176ZM538.495 32.08L538.502 33.08C545.165 33.0317 549.754 32.0061 552.664 29.2958C555.596 26.5658 556.582 22.3588 556.679 16.6409L555.679 16.624L554.679 16.607C554.584 22.2172 553.602 25.6902 551.301 27.8322C548.98 29.9939 545.073 31.0323 538.488 31.08L538.495 32.08ZM555.679 16.624L556.679 16.6379L556.871 2.81388L555.871 2.8L554.871 2.78611L554.679 16.6101L555.679 16.624ZM492.607 26.32V25.32H483.967V26.32V27.32H492.607V26.32ZM483.967 26.32H484.967V2.8H483.967H482.967V26.32H483.967ZM483.967 2.8V3.8H492.607V2.8V1.8H483.967V2.8ZM492.607 2.8H491.607V26.32H492.607H493.607V2.8H492.607ZM564.703 70V69H556.063V70V71H564.703V70ZM556.063 70H557.063V46.48H556.063H555.063V70H556.063ZM556.063 46.48V47.48H564.703V46.48V45.48H556.063V46.48ZM564.703 46.48H563.703V70H564.703H565.703V46.48H564.703Z" fill="#FFF6F6" mask="url(#path-1-outside-1_1_5)"/>
</svg>
